<svg width="578" height="135" viewBox="0 0 578 135" fill="none" xmlns="http://www.w3.org/2000/svg">
<path d="M496 118C520.853 118 541 97.8524 541 72.9996C541 48.1469 520.853 27.9996 496 27.9996C471.147 27.9996 451 48.1469 451 72.9996C451 97.8524 471.147 118 496 118Z" fill="#E18B4C" stroke="black" stroke-width="10" stroke-linejoin="round"/>
<path d="M496 28C495.375 25.5 491 18 481 18Z" fill="#E18B4C"/>
<path d="M496 28C495.375 25.5 491 18 481 18" stroke="black" stroke-width="10" stroke-linecap="round" stroke-linejoin="round"/>
<path d="M496 28C496.208 25.5 497.5 20 501 18Z" fill="#E18B4C"/>
<path d="M496 28C496.208 25.5 497.5 20 501 18" stroke="black" stroke-width="10" stroke-linecap="round" stroke-linejoin="round"/>
<path d="M513.5 90.5004C513.5 90.5004 508.5 100.5 496 100.5C483.5 100.5 478.5 90.5004 478.5 90.5004" fill="#E18B4C"/>
<path d="M513.5 90.5004C513.5 90.5004 508.5 100.5 496 100.5C483.5 100.5 478.5 90.5004 478.5 90.5004" stroke="white" stroke-width="10" stroke-linecap="round" stroke-linejoin="round"/>
<path d="M513.5 90.4996C513.5 90.4996 517.25 80.4996 511 80.4996C504.75 80.4996 503.5 97.9996 503.5 97.9996" fill="#E18B4C"/>
<path d="M513.5 90.4996C513.5 90.4996 517.25 80.4996 511 80.4996C504.75 80.4996 503.5 97.9996 503.5 97.9996" stroke="white" stroke-width="10" stroke-linecap="round" stroke-linejoin="round"/>
<path d="M518.5 60.5004H508.5Z" fill="#E18B4C"/>
<path d="M518.5 60.5004H508.5" stroke="white" stroke-width="10" stroke-linecap="round" stroke-linejoin="round"/>
<path d="M478.5 55.5V65.5Z" fill="#E18B4C"/>
<path d="M478.5 55.5V65.5" stroke="white" stroke-width="10" stroke-linecap="round" stroke-linejoin="round"/>
<path d="M446 68.0004V78.0004Z" fill="#E18B4C"/>
<path d="M446 68.0004V78.0004" stroke="black" stroke-width="10" stroke-linecap="round" stroke-linejoin="round"/>
<path d="M546 68.0004V78.0004Z" fill="#E18B4C"/>
<path d="M546 68.0004V78.0004" stroke="black" stroke-width="10" stroke-linecap="round" stroke-linejoin="round"/>
<path d="M44.3359 52.3438C44.3359 48.6719 42.9688 46.8359 40.2344 46.8359C39.0625 46.8359 37.4349 47.2656 35.3516 48.125L30.1562 50.2734V65.5469C39.6094 62.0312 44.3359 57.6302 44.3359 52.3438ZM67.5391 53.0078C67.5391 61.3411 63.4245 67.9557 55.1953 72.8516L72.1484 95H41.2891L30.3125 76.9141V95H4.80469V32.6172C21.3151 31.4453 32.1354 30.8594 37.2656 30.8594C42.3958 30.8594 46.3021 31.1719 48.9844 31.7969C56.3802 33.4896 61.6667 37.1094 64.8438 42.6562C66.6146 45.8333 67.513 49.2839 67.5391 53.0078ZM108.047 60.3516C108.047 58.0599 106.979 56.9141 104.844 56.9141C102.396 57.1484 100.807 58.4115 100.078 60.7031C99.7135 61.7969 99.4531 63.0729 99.2969 64.5312C99.1667 65.9635 98.9583 67.5 98.6719 69.1406L107.227 67.2266L107.969 61.25L108.047 60.3516ZM102.773 78.125C102.773 78.125 102.057 78.125 100.625 78.125C99.9479 78.125 99.2969 78.099 98.6719 78.0469C98.6719 81.1458 100.326 82.8385 103.633 83.125C104.544 83.2031 105.43 83.2422 106.289 83.2422C108.503 83.2422 111.276 82.7344 114.609 81.7188C117.969 80.7031 120.977 79.0495 123.633 76.7578L126.055 88.9062C120.247 93.9323 111.471 96.4453 99.7266 96.4453C92.9818 96.4453 87.1875 94.4792 82.3438 90.5469C77.0833 86.25 74.4531 80.2995 74.4531 72.6953C74.4531 66.9661 75.9375 61.8229 78.9062 57.2656C81.6667 53.099 85.4036 49.9349 90.1172 47.7734C94.8307 45.612 99.9219 44.5312 105.391 44.5312C112.474 44.5312 117.826 46.0807 121.445 49.1797C125.091 52.2786 126.901 56.1068 126.875 60.6641C126.875 65.2214 124.701 69.2708 120.352 72.8125C116.003 76.3542 110.143 78.125 102.773 78.125ZM161.406 80.1953C164.036 80.1953 167.839 78.3333 172.812 74.6094V93.7109C164.271 96.9401 156.393 97.3958 149.18 95.0781C141.966 92.7604 136.849 88.6198 133.828 82.6562C132.318 79.6354 131.562 76.0938 131.562 72.0312C131.562 63.8542 134.375 57.2266 140 52.1484C145.625 47.0703 152.943 44.5312 161.953 44.5312C165.677 44.5312 169.036 45.0911 172.031 46.2109V61.25C171.328 60.651 170.339 60.3516 169.062 60.3516C167.786 60.3516 166.419 60.7552 164.961 61.5625C163.503 62.3698 162.174 63.4505 160.977 64.8047C158.216 67.9297 156.836 71.1458 156.836 74.4531C156.862 77.7344 157.865 79.5833 159.844 80C160.365 80.1042 160.885 80.1693 161.406 80.1953ZM194.023 23.9453C197.852 23.9453 200.69 24.7526 202.539 26.3672C204.388 27.9557 205.299 29.987 205.273 32.4609C205.273 34.9349 204.089 37.2135 201.719 39.2969C199.375 41.3802 196.237 42.4219 192.305 42.4219C186.784 42.4219 183.346 40.7552 181.992 37.4219C181.602 36.4844 181.406 35.4427 181.406 34.2969C181.406 33.151 181.68 31.9531 182.227 30.7031C182.773 29.4531 183.594 28.3333 184.688 27.3438C187.109 25.0781 190.221 23.9453 194.023 23.9453ZM204.609 95H181.992V46.4453H204.609V95ZM270.664 64.2188C270.638 71.6667 268.177 78.3073 263.281 84.1406C259.635 88.4896 254.674 91.5885 248.398 93.4375C245.143 94.401 241.445 94.9219 237.305 95V107.656H214.102V46.4453H226.914L232.344 53.9453C238.177 47.7214 244.31 44.6094 250.742 44.6094C257.174 44.6094 262.096 46.4583 265.508 50.1562C268.945 53.8542 270.664 58.5417 270.664 64.2188ZM248.984 61.0547C248.438 60.8464 247.76 60.7422 246.953 60.7422C245.312 60.7422 243.542 61.6927 241.641 63.5938C239.766 65.4688 238.32 67.6172 237.305 70.0391V81.25C237.747 80.9375 238.398 80.5208 239.258 80C240.143 79.4531 241.107 78.8021 242.148 78.0469C248.294 73.6719 251.367 69.2188 251.367 64.6875C251.367 62.8646 250.573 61.6536 248.984 61.0547ZM310.156 60.3516C310.156 58.0599 309.089 56.9141 306.953 56.9141C304.505 57.1484 302.917 58.4115 302.188 60.7031C301.823 61.7969 301.562 63.0729 301.406 64.5312C301.276 65.9635 301.068 67.5 300.781 69.1406L309.336 67.2266L310.078 61.25L310.156 60.3516ZM304.883 78.125C304.883 78.125 304.167 78.125 302.734 78.125C302.057 78.125 301.406 78.099 300.781 78.0469C300.781 81.1458 302.435 82.8385 305.742 83.125C306.654 83.2031 307.539 83.2422 308.398 83.2422C310.612 83.2422 313.385 82.7344 316.719 81.7188C320.078 80.7031 323.086 79.0495 325.742 76.7578L328.164 88.9062C322.357 93.9323 313.581 96.4453 301.836 96.4453C295.091 96.4453 289.297 94.4792 284.453 90.5469C279.193 86.25 276.562 80.2995 276.562 72.6953C276.562 66.9661 278.047 61.8229 281.016 57.2656C283.776 53.099 287.513 49.9349 292.227 47.7734C296.94 45.612 302.031 44.5312 307.5 44.5312C314.583 44.5312 319.935 46.0807 323.555 49.1797C327.201 52.2786 329.01 56.1068 328.984 60.6641C328.984 65.2214 326.81 69.2708 322.461 72.8125C318.112 76.3542 312.253 78.125 304.883 78.125ZM359.688 96.5234C347.995 96.5234 340.234 95.0781 336.406 92.1875V74.2969C336.51 74.3229 336.888 74.4401 337.539 74.6484C338.216 74.8568 339.062 75.1172 340.078 75.4297C342.448 76.1589 344.935 76.849 347.539 77.5C350.169 78.125 352.279 78.4375 353.867 78.4375C356.471 78.4375 357.773 77.6432 357.773 76.0547C357.773 74.8307 356.654 73.5286 354.414 72.1484C353.398 71.5234 352.24 70.8724 350.938 70.1953C349.661 69.5182 348.359 68.763 347.031 67.9297C343.776 65.9245 341.159 63.5807 339.18 60.8984C337.227 58.2161 336.25 54.8307 336.25 50.7422C336.25 41.8099 340.964 35.8073 350.391 32.7344C354.219 31.4844 358.633 30.8594 363.633 30.8594C368.659 30.8594 373.906 31.4323 379.375 32.5781C380.495 32.8125 381.237 32.9818 381.602 33.0859V51.0156C374.518 49.5052 369.427 48.75 366.328 48.75C365.13 48.75 364.232 48.9583 363.633 49.375C363.034 49.7917 362.734 50.2604 362.734 50.7812C362.734 51.3021 362.995 51.849 363.516 52.4219C364.036 52.9688 364.935 53.5286 366.211 54.1016C367.487 54.6484 368.971 55.3255 370.664 56.1328C372.383 56.9141 373.984 57.7604 375.469 58.6719C382.135 62.7604 385.469 68.3464 385.469 75.4297C385.469 82.1484 383.203 87.3438 378.672 91.0156C374.089 94.6615 367.76 96.4974 359.688 96.5234ZM450.273 64.2188C450.247 71.6667 447.786 78.3073 442.891 84.1406C439.245 88.4896 434.284 91.5885 428.008 93.4375C424.753 94.401 421.055 94.9219 416.914 95V107.656H393.711V46.4453H406.523L411.953 53.9453C417.786 47.7214 423.919 44.6094 430.352 44.6094C436.784 44.6094 441.706 46.4583 445.117 50.1562C448.555 53.8542 450.273 58.5417 450.273 64.2188ZM428.594 61.0547C428.047 60.8464 427.37 60.7422 426.562 60.7422C424.922 60.7422 423.151 61.6927 421.25 63.5938C419.375 65.4688 417.93 67.6172 416.914 70.0391V81.25C417.357 80.9375 418.008 80.5208 418.867 80C419.753 79.4531 420.716 78.8021 421.758 78.0469C427.904 73.6719 430.977 69.2188 430.977 64.6875C430.977 62.8646 430.182 61.6536 428.594 61.0547ZM574.727 91.4844C569.779 94.8438 564.531 96.5234 558.984 96.5234C553.464 96.5234 548.971 94.9609 545.508 91.8359C542.044 88.6849 540.312 84.4531 540.312 79.1406V58.8281H535.859V46.4453H540.312V33.3203L563.672 30.9375V46.4453H574.727V58.8281H563.672V71.0938C563.672 74.7656 564.492 77.4349 566.133 79.1016C567.799 80.7422 570.664 81.5625 574.727 81.5625V91.4844Z" fill="#444444"/>
</svg>
